<svg xmlns="http://www.w3.org/2000/svg" xmlns:xlink="http://www.w3.org/1999/xlink" viewBox="0 0 121 121" class="design-iconfont">
  <defs>
    <path id="7grk8jtw6a" d="M0 0H288V160H0z"/>
    <path d="M142.142857,15 L87.8571429,15 C86.2857143,15 85,16.2857143 85,17.8571429 L85,72.1428571 C85,73.7142857 86.2857143,75 87.8571429,75 L142.142857,75 C143.714286,75 145,73.7142857 145,72.1428571 L145,17.8571429 C145,16.2857143 143.714286,15 142.142857,15 Z M142.142857,85 L87.8571429,85 C86.2857143,85 85,86.2857143 85,87.8571429 L85,142.142857 C85,143.714286 86.2857143,145 87.8571429,145 L142.142857,145 C143.714286,145 145,143.714286 145,142.142857 L145,87.8571429 C145,86.2857143 143.714286,85 142.142857,85 Z M72.1428571,15 L17.8571429,15 C16.2857143,15 15,16.2857143 15,17.8571429 L15,72.1428571 C15,73.7142857 16.2857143,75 17.8571429,75 L72.1428571,75 C73.7142857,75 75,73.7142857 75,72.1428571 L75,17.8571429 C75,16.2857143 73.7142857,15 72.1428571,15 Z M72.1428571,85 L17.8571429,85 C16.2857143,85 15,86.2857143 15,87.8571429 L15,142.142857 C15,143.714286 16.2857143,145 17.8571429,145 L72.1428571,145 C73.7142857,145 75,143.714286 75,142.142857 L75,87.8571429 C75,86.2857143 73.7142857,85 72.1428571,85 Z" id="dfc20efisc"/>
  </defs>
  <g fill="none" fill-rule="evenodd">
    <g transform="translate(-167 -39)">
      <mask id="vwenb6dxwb" fill="#fff">
        <use xlink:href="#7grk8jtw6a"/>
      </mask>
      <g mask="url(#vwenb6dxwb)">
        <use fill="#FAFBFD" transform="matrix(-1 0 0 1 312 24)" xlink:href="#dfc20efisc"/>
      </g>
    </g>
    <path d="M0,120 L288,120 L288,158 C288,159.104569 287.104569,160 286,160 L2,160 C0.8954305,160 1.3527075e-16,159.104569 0,158 L0,120 L0,120 Z" fill="#FAFBFD" transform="translate(-167 -39)"/>
  </g>
</svg>
