<svg xmlns="http://www.w3.org/2000/svg" xmlns:xlink="http://www.w3.org/1999/xlink" viewBox="0 0 28 28" class="design-iconfont">
  <defs>
    <linearGradient x1="7.3907074%" y1="20.9629099%" x2="84.3985758%" y2="89.5398672%" id="139vfs8dfc">
      <stop stop-color="#4B9FF8" stop-opacity="0" offset="0%"/>
      <stop stop-color="#182132" offset="100%"/>
      <stop stop-color="#5E96FF" offset="100%"/>
    </linearGradient>
    <linearGradient x1="17.9217778%" y1="42.6020198%" x2="73.9824498%" y2="61.79632%" id="xe1uwy1dyd">
      <stop stop-color="#88E6FF" offset="0%"/>
      <stop stop-color="#276EFF" offset="100%"/>
    </linearGradient>
    <linearGradient x1="21.2128715%" y1="26.7677605%" x2="72.1938357%" y2="71.0918264%" id="wqykpzeb5e">
      <stop stop-color="#00CAFF" offset="0%"/>
      <stop stop-color="#2B66DF" offset="100%"/>
    </linearGradient>
    <linearGradient x1="31.9722014%" y1="31.4484207%" x2="69.4803037%" y2="69.1435907%" id="jlvw4i8e6f">
      <stop stop-color="#35CDF5" offset="0%"/>
      <stop stop-color="#276DFF" offset="100%"/>
    </linearGradient>
    <linearGradient x1="33.3560746%" y1="0%" x2="66.6439254%" y2="100%" id="c0tjpja22g">
      <stop stop-color="#AEEEFF" offset="0%"/>
      <stop stop-color="#3778FF" offset="100%"/>
    </linearGradient>
    <linearGradient x1="-5.20285186%" y1="26.7677605%" x2="92.5594037%" y2="71.0918264%" id="puob9zbjih">
      <stop stop-color="#00CAFF" offset="0%"/>
      <stop stop-color="#2B66DF" offset="100%"/>
    </linearGradient>
    <linearGradient x1="17.9217778%" y1="41.6781788%" x2="73.9824498%" y2="63.2694144%" id="5cumndbmwi">
      <stop stop-color="#88E6FF" offset="0%"/>
      <stop stop-color="#276EFF" offset="100%"/>
    </linearGradient>
    <path id="zqeoy8naqa" d="M0 0.094125848L5.24017067 0.094125848 5.24017067 0.282076582 0 0.282076582z"/>
  </defs>
  <g fill="none" fill-rule="evenodd">
    <g transform="translate(9.943073 3.897768)">
      <mask id="ve7qvw5rkb" fill="#fff">
        <use xlink:href="#zqeoy8naqa"/>
      </mask>
      <path fill="#8E8E8E" mask="url(#ve7qvw5rkb)" d="M2.63341701 0.093975367L0 0.093975367 2.60675366 0.093975367 5.24017067 0.093975367z"/>
    </g>
    <g>
      <path fill="url(#139vfs8dfc)" d="M12 0L22.3923048 6.00409762 22.3923048 18.0122929 12 24.0163905 1.60769515 18.0122929 1.60769515 6.00409762z" transform="translate(2.006879 1.998689)"/>
      <path fill="url(#xe1uwy1dyd)" d="M12.7080062 19.8164121L10.3923048 21.1543252 0 15.3621848 2.46498332 14.2318616z" transform="translate(3.614574 1.998689)"/>
      <path fill="url(#xe1uwy1dyd)" d="M20.7846097 15.1902675L18.4689084 16.5281806 8.07660352 10.7360402 10.5415868 9.60571706z" transform="translate(3.614574 1.998689)"/>
      <path d="M8.05298261,1.35558384 C11.2405048,3.04253397 13.6107694,4.33462974 15.1637765,5.23187116 C16.7167836,6.12911257 17.8106206,6.83838267 18.4452875,7.35968146 C18.701812,9.63286396 18.8313874,11.4948869 18.8340138,12.9457503 C18.8365353,14.3966137 18.7140672,16.5408609 18.4666097,19.3784919 L12.7099826,16.0535838 L12.7099826,13.3005838 L16.1940236,15.2411941 L16.1940236,8.83131651 L12.7099826,6.79858384 L12.7103048,6.77398896 L12.6669826,6.77358384 L8.05298261,4.08337054 L8.05298261,1.35558384 Z" fill="url(#wqykpzeb5e)" transform="translate(3.614574 1.998689)"/>
      <path d="M0,6.00409762 C2.66612604,6.96304078 4.59911023,7.78911356 5.79895258,8.48231595 C6.99879492,9.17551834 8.52991234,10.3508114 10.3923048,12.0081952 C10.6745801,13.8575916 10.8157178,15.5560468 10.8157178,17.1035609 C10.8157178,18.651075 10.6745801,20.9553515 10.3923048,24.0163905 L0,18.0122929 L0,15.3579598 L8.14104099,19.8941535 L8.14104099,13.4842759 L0,8.73188432 L0,6.00409762 Z" fill="url(#jlvw4i8e6f)" transform="translate(3.614574 1.998689)"/>
      <path d="M12.7103048,10.6689479 L12.7103048,22.6771432 L10.3923048,24.0163905 L10.3923048,12.0081952 C10.643835,11.6698985 10.9233253,11.4119339 11.2307758,11.2343013 C11.5382263,11.0566688 12.0314026,10.8682176 12.7103048,10.6689479 Z M20.7846097,6.00409762 L20.7846097,18.0122929 L18.4666097,19.3784919 L18.4345233,7.35986189 C18.9351636,6.89889248 19.3268447,6.58685669 19.6095665,6.42375454 C19.8922883,6.26065239 20.2839694,6.12076675 20.7846097,6.00409762 Z" fill="url(#c0tjpja22g)" transform="translate(3.614574 1.998689)"/>
      <path d="M10.3923048,1.66224091 L10.3923048,5.4463346 L4.83108189,8.37578353 L4.83108189,4.59168984 C5.08261205,4.25339311 5.36210236,3.99542847 5.66955284,3.81779593 C5.97700331,3.64016339 7.55125398,2.92164505 10.3923048,1.66224091 Z" fill="url(#puob9zbjih)" transform="translate(3.614574 1.998689)"/>
      <path d="M10.3923048,0 L20.7846097,6.00409762 L18.425,7.367 L10.4135845,2.88283783 L4.96667543,6.00409762 L12.708,10.67 L10.3923048,12.0081952 L0,6.00409762 L10.3923048,0 Z" fill="url(#5cumndbmwi)" transform="translate(3.614574 1.998689)"/>
    </g>
  </g>
</svg>
