<?xml version="1.0" encoding="UTF-8"?>
<svg width="40px" height="40px" viewBox="0 0 40 40" version="1.1" xmlns="http://www.w3.org/2000/svg" xmlns:xlink="http://www.w3.org/1999/xlink">
    <title>编组 5备份 2</title>
    <defs>
        <linearGradient x1="0%" y1="0%" x2="100%" y2="100%" id="linearGradient-1">
            <stop stop-color="#00CAFF" offset="0%"></stop>
            <stop stop-color="#0F53E0" offset="100%"></stop>
        </linearGradient>
        <polygon id="path-2" points="0 0.11765731 7.48595811 0.11765731 7.48595811 0.352595728 0 0.352595728"></polygon>
        <linearGradient x1="77.6732013%" y1="90.0792018%" x2="12.1949554%" y2="18.2159415%" id="linearGradient-4">
            <stop stop-color="#0486E4" offset="0%"></stop>
            <stop stop-color="#53ACFF" offset="100%"></stop>
        </linearGradient>
    </defs>
    <g id="页面-1" stroke="none" stroke-width="1" fill="none" fill-rule="evenodd">
        <g id="编组-5备份-2">
            <g id="编组-28备份">
                <g id="编组-14备份" fill="url(#linearGradient-1)">
                    <rect id="矩形" x="0" y="0" width="40" height="40" rx="6.4"></rect>
                </g>
                <g id="编组" transform="translate(14.204390, 5.568240)">
                    <mask id="mask-3" fill="white">
                        <use xlink:href="#path-2"></use>
                    </mask>
                    <g id="Clip-9"></g>
                    <polygon id="Fill-8" fill="#8E8E8E" mask="url(#mask-3)" points="3.7620243 0.117469209 0 0.117469209 3.7239338 0.117469209 7.48595811 0.117469209"></polygon>
                </g>
            </g>
            <g id="编组-4" transform="translate(5.609828, 5.600000)">
                <polygon id="多边形备份-2" fill="url(#linearGradient-4)" points="14.3901724 0 26.8524273 7.2 26.8524273 21.6 14.3901724 28.8 1.92791754 21.6 1.92791754 7.2"></polygon>
                <g id="编组-2" transform="translate(1.927918, 0.000000)">
                    <path d="M9.65698402,1.62559043 C13.4794002,3.64854904 16.3217766,5.19800578 18.1841132,6.27396067 C20.0464499,7.34991555 21.3581585,8.20045881 22.1192389,8.82559043 C22.4268582,11.5515478 22.5822427,13.7844504 22.5853922,15.5242983 C22.5884159,17.2641462 22.4415545,19.8354867 22.1448081,23.23832 L15.240984,19.2505904 L15.240984,15.9435904 L19.819293,18.4873645 L19.819293,10.4010338 L9.65698402,4.4969735 L9.65698402,1.62559043 Z" id="形状结合" fill="#AAD4F8"></path>
                    <path d="M0,7.2 C3.19716778,8.34994646 5.51516577,9.34055726 6.95399395,10.1718324 C8.39282214,11.0031076 10.2289091,12.4124968 12.4622549,14.4 C12.800754,16.617761 12.9700036,18.6545163 12.9700036,20.5102659 C12.9700036,22.3660154 12.800754,25.1292601 12.4622549,28.8 L0,21.6 L0,18.4169741 L10.162309,24.061774 L10.162309,15.9754434 L0,10.0713831 L0,7.2 Z" id="形状结合" fill="#ABD5F8"></path>
                    <path d="M15.2419565,12.794 L15.2419565,27.194 L12.4622549,28.8 L12.4622549,14.4 C12.7638851,13.994321 13.0990446,13.6849747 13.4677333,13.4719611 C13.8364221,13.2589475 14.4278298,13.0329605 15.2419565,12.794 Z M24.9245098,7.2 L24.9245098,21.6 L22.1448081,23.23832 L22.1063308,8.82580681 C22.7066891,8.27302102 23.1763856,7.89883363 23.5154203,7.70324462 C23.8544549,7.50765561 24.3241514,7.3399074 24.9245098,7.2 Z" id="形状" fill="#D5EAFB"></path>
                    <path d="M12.4622549,0 L24.9245098,7.2 L22.095,8.834 L12.487773,3.45704445 L5.95594298,7.2 L15.239,12.795 L12.4622549,14.4 L0,7.2 L12.4622549,0 Z" id="形状结合" fill="#FFFFFF"></path>
                </g>
            </g>
        </g>
    </g>
</svg>