<svg xmlns="http://www.w3.org/2000/svg" viewBox="0 0 114 102" class="design-iconfont">
  <defs>
    <linearGradient x1="51.9445544%" y1="48.756112%" x2="52.6331696%" y2="51.3631659%" id="6cdlmg9csa">
      <stop stop-color="#FBFCFD" offset="0%"/>
      <stop stop-color="#F0F2F5" offset="100%"/>
    </linearGradient>
    <linearGradient x1="50%" y1="1.17556896%" x2="50%" y2="94.7658656%" id="oemy5viypb">
      <stop stop-color="#EBEDF0" stop-opacity=".99166849" offset="0%"/>
      <stop stop-color="#E1E3E6" offset="100%"/>
    </linearGradient>
    <linearGradient x1="50%" y1="0%" x2="50%" y2="98.8494636%" id="ixh7xviovc">
      <stop stop-color="#FFF" offset="0%"/>
      <stop stop-color="#F2F4F7" offset="100%"/>
    </linearGradient>
    <linearGradient x1="50%" y1="0%" x2="50%" y2="99.2081926%" id="5n4d3z556d">
      <stop stop-color="#EDEFF2" offset="0%"/>
      <stop stop-color="#E8EAED" offset="100%"/>
    </linearGradient>
    <linearGradient x1="58.6805556%" y1="45.2156208%" x2="42.0486287%" y2="50%" id="jdlujj428e">
      <stop stop-color="#D7D8DB" offset="0%"/>
      <stop stop-color="#BEBFC2" offset="100%"/>
    </linearGradient>
    <linearGradient x1="50%" y1="0%" x2="50%" y2="100%" id="ssc0mswiqg">
      <stop stop-color="#DDDEE0" offset=".15308277%"/>
      <stop stop-color="#C3C5C7" offset="99.7967694%"/>
    </linearGradient>
    <linearGradient x1="50%" y1="0%" x2="50%" y2="98.0415963%" id="qgbp2agkwf">
      <stop stop-color="#DDDEE0" offset="0%"/>
      <stop stop-color="#BEC0C2" offset="100%"/>
    </linearGradient>
    <linearGradient x1="50%" y1="0%" x2="50%" y2="98.3979096%" id="33h0azi8bi">
      <stop stop-color="#FEFEFE" offset="0%"/>
      <stop stop-color="#F2F4F7" offset="100%"/>
    </linearGradient>
    <linearGradient x1="50%" y1="0%" x2="50%" y2="98.2157939%" id="1ji6mn6u2h">
      <stop stop-color="#F3F4F5" offset="0%"/>
      <stop stop-color="#F3F5F7" offset="100%"/>
    </linearGradient>
  </defs>
  <g transform="translate(.501006 .285714)" fill="none" fill-rule="evenodd">
    <path d="M17.1209119,84.6900509 C28.3665014,82.1386379 44.567134,81.0046765 55.5734556,81.5716572 C66.5797773,82.1386379 75.6747154,84.0626621 76.337647,83.6167125 C78.5348963,82.1386379 83.2228041,81.5016271 82.9835362,82.0686078 C82.7442684,82.6355885 79.7395097,84.4065606 80.6965811,84.6900509 C81.6536526,84.9735412 91.4636349,86.1075026 95.5311886,86.9579736 C99.5987422,87.8084446 102.20519,88.6589156 103.103458,88.6589156 C104.001726,88.6589156 105.377926,87.4636271 111.265008,88.0306078 C111.369059,88.2475699 109.961795,88.3261577 108.64098,88.9896778 C107.320165,89.6531979 106.39289,89.6075797 106.39289,89.7732036 C106.39289,89.9388274 107.123061,89.5530226 108.64098,90.5330763 C110.158899,91.51313 112.857143,91.8263398 112.857143,92.0894688 C112.857143,92.3525978 109.439147,93.4696072 103.714569,91.6551481 C102.265547,91.1958669 98.8809386,95.1791934 83.3285276,96.3131547 C67.7761166,97.4471161 41.4566518,98.2975871 41.4566518,98.2975871 C41.4566518,98.2975871 43.0444315,100.329656 45.3458755,100.919339 C45.4747574,101.127253 44.4329783,101.883543 39.9559694,101.034828 C35.4789604,100.186113 33.0822766,98.2975871 33.0822766,98.2975871 C33.0822766,98.2975871 24.2293657,97.7306064 20.8796156,97.1636257 C17.5298656,96.5966451 13.7015798,95.1791934 11.0696333,94.895703 C8.4376868,94.6122127 -3.5257063,93.194761 1.02038308,90.0763673 C1.02038308,90.0763673 5.8753224,87.2414639 17.1209119,84.6900509 Z" fill="url(#6cdlmg9csa)"/>
    <path d="M17.1428571,87.1428571 L17.1422857,94.2848571 L24.2857143,94.2857143 L24.2857143,95.7142857 L15.7142857,95.7142857 L15.7142857,87.1428571 L17.1428571,87.1428571 Z" fill="#C4C6CC"/>
    <path d="M15.7142857,0 L15.7137143,7.142 L22.8571429,7.14285714 L22.8571429,8.57142857 L14.2857143,8.57142857 L14.2857143,0 L15.7142857,0 Z" fill="#C4C6CC" transform="rotate(90 18.571429 4.285714)"/>
    <path d="M84.2857143,0 L84.2851429,7.142 L91.4285714,7.14285714 L91.4285714,8.57142857 L82.8571429,8.57142857 L82.8571429,0 L84.2857143,0 Z" fill="#C4C6CC" transform="rotate(-180 87.142857 4.285714)"/>
    <rect fill="url(#oemy5viypb)" x="20" y="5.71428571" width="65.7142857" height="82.8571429" rx="1.42857143"/>
    <path fill="url(#ixh7xviovc)" d="M25.7142857 11.4285714H80V82.85714279999999H25.7142857z"/>
    <path fill="#DCDEE0" d="M37.1428571 14.2857143H68.5714285V15.71428573H37.1428571z"/>
    <path fill="#D1D3D6" d="M25.7142857 82.8571429H80V84.28571433H25.7142857z"/>
    <path fill="url(#5n4d3z556d)" d="M37.1428571 2.85714286H68.5714285V14.285714259999999H37.1428571z"/>
    <g fill="#C4C6CC">
      <path d="M0 0H2.85714286V1.42857143H0z" transform="translate(40 27.142857)"/>
      <path d="M5.71428571 0H8.57142857V1.42857143H5.71428571z" transform="translate(40 27.142857)"/>
      <path d="M11.4285714 0H14.285714259999999V1.42857143H11.4285714z" transform="translate(40 27.142857)"/>
      <path d="M17.1428571 0H19.99999996V1.42857143H17.1428571z" transform="translate(40 27.142857)"/>
      <path d="M22.8571429 0H25.71428576V1.42857143H22.8571429z" transform="translate(40 27.142857)"/>
    </g>
    <path fill="#E5E7EC" d="M18.5714286 1.4285713999999992A18.5714286 18.5714286 0 1 0 18.5714286 38.571428600000004A18.5714286 18.5714286 0 1 0 18.5714286 1.4285713999999992Z" transform="translate(44.285714 38.571429)"/>
    <path d="M29.7334826,34.2669047 L32.1252321,36.6908162 C31.6372916,37.2641997 31.6372916,37.8124531 32.1252321,38.3355763 C32.6131726,38.8586994 33.8095238,40.2116955 35.7142857,42.3945646 L35.7142857,36.6908162 L31.0915509,32.8571429 L29.7334826,34.2669047 Z" fill="#E5E7EC" transform="translate(44.285714 38.571429)"/>
    <path fill="#DCDDE0" d="M2.16265836 0H5.01980122V7.14285714H2.16265836z" transform="rotate(-45 123.39349449 -50.6170556)"/>
    <path d="M2.72128152,4.31667579 L4.54674462,4.31667579 C5.29479527,4.31667579 5.91617417,4.89374336 5.97141545,5.63975152 L7.02926074,19.9254658 C7.08752441,20.7122898 6.49690958,21.3973687 5.7100856,21.4556323 C5.67498044,21.4582318 5.63979119,21.4595329 5.60458991,21.4595329 L1.55044505,21.4595329 C0.761466834,21.4595329 0.12187362,20.8199397 0.12187362,20.0309615 C0.12187362,19.9920152 0.123466272,19.9530852 0.126647586,19.9142691 L1.29748406,5.62855484 C1.35823564,4.88730721 1.9775485,4.31667579 2.72128152,4.31667579 Z" fill="url(#jdlujj428e)" transform="rotate(-45 123.39349449 -50.6170556)"/>
    <path stroke="url(#qgbp2agkwf)" stroke-width="1.42857143" fill="url(#ssc0mswiqg)" d="M18.5714286 0.7142857000000014A17.8571429 17.8571429 0 1 0 18.5714286 36.428571500000004A17.8571429 17.8571429 0 1 0 18.5714286 0.7142857000000014Z" transform="translate(44.285714 38.571429)"/>
    <path stroke="url(#1ji6mn6u2h)" stroke-width="1.42857143" fill="url(#33h0azi8bi)" d="M18.5714286 5A13.5714286 13.5714286 0 1 0 18.5714286 32.1428572A13.5714286 13.5714286 0 1 0 18.5714286 5Z" transform="translate(44.285714 38.571429)"/>
    <path d="M23.026532,11.5589519 C23.026532,16.0049078 20.4878159,19.8579148 16.7809532,21.7474034 C18.0206663,19.8438056 18.7408177,17.5711932 18.7408177,15.1303805 C18.7408177,12.0560509 17.5983189,9.24856624 15.7147413,7.1093464 L20.4134578,4.28526904 C22.0458156,6.26138803 23.026532,8.79564069 23.026532,11.5589519 Z" fill="#FFF" transform="rotate(-90 60.7992085 10.1591935)"/>
    <path fill="#D1D3D6" d="M35.7142857 40.6953393L35.7142857 42.3945646 41.4285714 49.0297361 41.4285714 47.4382669z" transform="translate(44.285714 38.571429)"/>
  </g>
</svg>
